<mxfile host="app.diagrams.net" modified="2024-02-09T09:50:54.609Z" agent="Mozilla/5.0 (Macintosh; Intel Mac OS X 10_15_7) AppleWebKit/537.36 (KHTML, like Gecko) Chrome/118.0.0.0 Safari/537.36" version="22.1.20" etag="CYheHGMcGMeMMzC0YVd9" type="github">
  <diagram name="Sida-1" id="bM5ayN_rwbRCOoJBLMyZ">
    <mxGraphModel>
      <root>
        <mxCell id="0" />
        <mxCell id="1" parent="0" />
      </root>
    </mxGraphModel>
  </diagram>
</mxfile>
